<svg
   viewBox="0 0 420 527"
   xmlns="http://www.w3.org/2000/svg"
   >
  <path
     d="m 217.81496,143.0876 c 20.76674,-3.12313 24.67968,-3.21292 49.5067,-1.32064 1.85755,0.14157 15.11926,1.27965 28.59783,3.95821 19.12789,3.80123 35.77635,12.04442 37.2041,12.78374 7.0455,3.64827 20.35599,12.56079 24.46046,15.92384 4.06381,3.32974 8.30897,7.29537 11.48543,10.52702 10e-6,-1e-5 3.31382,3.84861 3.71684,4.45248 -4.3771,-4.5234 -9.01092,-7.81912 -9.01092,-7.81912 -6.74187,-5.3499 -39.35912,-21.82186 -52.21477,-26.65847 -11.95084,-3.08548 -17.34035,-3.79176 -21.46091,-4.57691 -16.09869,-3.06751 -35.02734,-4.88688 -35.30788,-4.89315 -11.28978,-0.25221 -17.61934,-0.25462 -32.24738,1.18596 -13.55445,1.33485 -23.68991,4.22517 -28.81634,5.66413 -4.2018,1.17942 -16.67696,4.98781 -29.74705,11.91632 -16.81092,8.91154 -35.39683,22.31387 -47.74678,32.39776 -15.83854,12.93236 -32.37192,31.45501 -31.28388,29.81929 15.64472,-23.51965 50.0268,-56.49714 95.58932,-73.33509 3.59167,-1.32733 8.83284,-3.24233 14.48078,-4.84337 8.5272,-2.41723 17.85169,-4.43866 22.79445,-5.182 z" />
  <path
     d="M 194.06734,79.236002 C 139.67432,26.307165 117.09711,31.746464 52.82779,32.568199 c -5.78441,0.07396 -12.463131,0.18231 -18.976597,0.135538 -1.637805,-1.540048 -1.482648,-2.081534 -2.730608,-4.696361 90.852695,-5.443254 102.238305,6.546884 104.792625,6.546884 2.55431,0 34.62279,8.859446 58.15413,44.681742 z" />
  <path
     d="m 324.63157,40.22069 c 0.5503,4.508547 -0.16347,11.72435 -8.28397,13.96469 -7.39817,2.041057 -14.40149,3.379356 -21.92625,5.212779 -9.96659,2.42838 -18.86922,8.184896 -25.01453,11.975002 -11.4214,7.044123 -17.88847,16.024995 -23.06406,23.635665 -5.85433,8.608744 -6.70962,15.191414 -8.23252,20.438784 -1.48399,5.11332 -26.16432,-1.11143 -28.98443,-7.6834 -6.10323,-14.222954 -0.97879,-6.7302 -16.42487,-30.645154 -8.808,-13.637297 -26.9356,-28.014561 -44.53231,-37.15165 -21.41236,-11.118372 -36.04942,-11.493689 -91.543,-12.107926 -7.78826,-0.0862 -25.505045,0.147896 -25.505045,0.147896 0,0 6.213855,10.987699 16.121455,26.336656 5.15721,7.989606 24.99292,31.095884 37.57707,38.823474 14.94034,9.174464 36.36106,16.636444 47.0974,18.249274 12.35189,1.85553 59.77775,1.76463 77.2093,-3.65257 0.74635,-0.23194 26.61456,34.08496 15.65522,34.5307 -7.45069,0.30304 -28.74433,4.40675 -52.29409,13.55782 -26.472,10.28661 -62.9583,38.53723 -80.16818,60.47604 -12.68964,16.17648 -22.87513,34.6414 -29.97033,63.48642 -3.2172,13.07926 -7.61511,39.03059 -4.79994,62.27484 2.74981,22.70452 13.98013,64.68206 51.71612,106.08439 13.27943,14.56963 62.12492,52.80518 134.62636,52.33965 64.21873,-0.41234 106.80679,-30.86147 140.40102,-68.71378 0.85479,-0.96314 -0.28774,-2.38403 -0.83357,-2.9531 -5.76781,-6.01343 -29.477,-27.48803 -44.85953,-28.67003 -1.38326,-0.10629 -3.19895,1.98065 -5.27079,4.26833 -9.74688,10.76231 -21.67947,20.21787 -44.60253,28.88127 -31.88113,12.04896 -62.97526,7.1188 -84.27426,-6.81379 -21.37169,-13.98014 -53.95807,-32.49696 -57.11779,-93.47215 -0.15508,-2.99261 4.17705,-2.51457 4.77338,-2.5038 3.00546,0.0543 62.5687,0.21133 80.96744,0.38385 14.55004,0.13643 35.86728,0.64316 60.83354,-0.4639 16.14364,-0.71585 26.15876,1.51645 48.80034,-6.04189 8.30134,-2.7712 28.96933,-11.88874 40.0168,-37.82427 3.498,-8.21206 13.9183,-24.17667 8.21835,-57.99149 -1.98408,-11.77052 -6.91437,-25.13802 -17.29842,-38.11749 -5.70679,-7.13316 -13.06077,-14.14913 -22.47818,-20.71842 -21.85386,-15.24457 -44.4018,-24.66932 -84.24878,-27.83896 -18.99046,-1.5106 -31.23194,-0.60639 -42.18196,0.4075 -28.0704,2.59912 -17.28188,-32.67211 -15.26673,-34.33377 14.88091,-12.270574 17.05328,8.00152 29.45082,7.73292 49.63733,-1.07544 67.52569,6.13077 81.35637,10.30356 44.9814,13.57112 67.91574,41.97861 68.65858,42.71251 31.18753,30.81239 30.13721,75.76623 30.24844,78.34966 1.59057,36.94369 -22.07296,71.40101 -32.98908,80.64905 -26.52691,22.47337 -41.58863,27.81428 -78.68125,29.15251 -34.66228,1.25055 -76.61771,0.14729 -90.9332,0.0121 -2.30731,-0.0218 -35.74376,-0.84588 -35.8165,-0.2026 -0.34687,3.06777 3.82672,13.3959 10.65811,21.5933 24.26495,29.11697 43.13752,32.95104 61.85593,33.87596 38.09381,1.8823 55.86781,-19.75174 67.01438,-32.30929 5.79268,-6.52594 10.18751,-6.79273 13.95985,-7.04071 25.01882,-1.64465 68.87877,34.92017 78.27779,48.46518 3.40213,4.90284 3.48571,9.4846 1.64935,12.46702 -20.09701,32.63944 -42.97675,52.17069 -75.10571,69.70364 -52.91287,28.87484 -102.98983,26.17166 -144.16973,18.43252 C 139.94641,511.56717 103.00506,479.64058 84.32227,460.07207 65.11096,439.94998 45.97983,408.52198 35.305749,366.37608 25.4385,327.41591 30.64064,285.23006 44.84103,247.69612 c 10.16331,-26.86329 28.80386,-57.13532 60.19054,-83.85268 17.9906,-15.31419 37.06034,-25.9007 36.57965,-25.89312 C 117.96934,138.32296 89.3749,124.66159 80.34272,119.70266 68.09916,112.98058 51.85951,100.15661 40.660024,88.839076 33.173697,81.273836 15.778014,58.606353 3.1418158,27.120903 -3.7944062,9.838007 2.1986828,3.856493 7.2556638,2.535609 24.471069,-1.961056 61.01489,0.749649 88.28394,1.450451 c 20.34698,0.522908 36.56973,3.393538 38.33401,3.856378 44.34528,11.633514 63.34412,27.498366 89.24295,60.266601 12.10584,15.316796 8.95399,16.160826 9.58794,15.243786 4.50027,-6.509878 1.75006,-6.853204 12.69321,-19.532522 11.69659,-13.552295 26.02396,-19.226086 36.46146,-22.800252 5.709,-1.954961 21.136,-8.079058 33.56241,-8.079058 12.4264,0 15.89203,5.115665 16.46565,9.815306 z" />
  <path
     d="m 299.63839,259.71404 c 3.15022,-0.16822 2.97496,-0.61803 3.00497,-1.55184 0.36551,-11.37601 1.35038,-34.38545 -41.7746,-37.27668 -7.68465,-0.5152 -41.77663,2.16135 -65.52057,33.55993 -6.77804,2.07939 -11.41748,-25.12766 -7.30855,-28.95665 6.81098,-6.34696 29.43055,-34.03466 78.01121,-31.31132 24.44978,1.37061 39.12553,6.0859 53.30985,24.48745 4.38788,5.69247 10.40486,22.39494 9.46669,34.83533 -1.0599,14.0546 -7.08511,25.70198 -8.42993,28.13385 -1.45055,2.62305 -3.15392,4.0333 -6.08917,3.98556 -48.89159,-0.79519 -158.25703,0.46809 -158.25703,0.46809 -3.78874,0.005 -5.13718,-2.15532 -4.13153,-5.30842 8.36017,-26.21221 24.5905,-42.0647 36.11991,-55.29034 -3.6113,10.24532 11.76928,23.96254 7.30855,28.95645 -0.91071,1.01957 -2.06782,2.22247 -2.85345,3.95951 -0.31224,0.69036 0.0163,1.60568 1.29792,1.57791 17.56926,-0.38073 91.28422,0.50872 105.84573,-0.26883 z" />

    <style>
        path { fill:black ; }
        @media (prefers-color-scheme: dark) {
            path { fill: #f9f9f9; }
        }
    </style>
</svg>
